# xmcd
#
# Track frame offsets: 
#        150
#        19348
#        41213
#        56560
#        77578
#        94914
#        115239
#        131821
#        152196
#        170247
#        190530
#
# Disc length: 2804 seconds
#
# Revision: 0
# Processed by: cddbd v1.5.2PL0 Copyright (c) Steve Scherf et al.
# Submitted via: ExactAudioCopy v0.99pb4
#
DISCID=960af20b
DTITLE=Дмитрий Полторацкий - Полквоник Спецназа
DYEAR=2008
DGENRE=
TTITLE0=Полковник Спецназа
TTITLE1=Deutschland,wir sind mid dir!
TTITLE2=Голоса военных дорог
TTITLE3=Спецназ
TTITLE4=Голубые береты
TTITLE5=Вальс золотых погон
TTITLE6=Волкодавы
TTITLE7=Германия,мы с тобой
TTITLE8=Две страны
TTITLE9=Мы вернемся с войны
TTITLE10=Мы
EXTD=
EXTT0=
EXTT1=
EXTT2=
EXTT3=
EXTT4=
EXTT5=
EXTT6=
EXTT7=
EXTT8=
EXTT9=
EXTT10=
PLAYORDER=
